<svg viewBox="0 0 1280 640" xmlns="http://www.w3.org/2000/svg">
  <defs>
    <radialGradient id="sky2" cx="30%" cy="40%" r="85%">
      <stop offset="0%" stop-color="#1f2a4e"/>
      <stop offset="55%" stop-color="#0a0e1c"/>
      <stop offset="100%" stop-color="#02030a"/>
    </radialGradient>
    <linearGradient id="raven2" x1="50%" y1="0%" x2="50%" y2="100%">
      <stop offset="0%" stop-color="#0a0a10"/>
      <stop offset="100%" stop-color="#1e202a"/>
    </linearGradient>
    <radialGradient id="eyeglow2" cx="50%" cy="50%" r="50%">
      <stop offset="0%" stop-color="#ffdf95"/>
      <stop offset="50%" stop-color="#d27a1c"/>
      <stop offset="100%" stop-color="#3a1604" stop-opacity="0"/>
    </radialGradient>
    <radialGradient id="moon2" cx="50%" cy="50%" r="50%">
      <stop offset="0%"  stop-color="#3a4a78" stop-opacity="0.22"/>
      <stop offset="70%" stop-color="#1a2342" stop-opacity="0.10"/>
      <stop offset="100%" stop-color="#0a0e1c" stop-opacity="0"/>
    </radialGradient>
    <linearGradient id="title" x1="0%" y1="0%" x2="0%" y2="100%">
      <stop offset="0%" stop-color="#f0e6cc"/>
      <stop offset="100%" stop-color="#b08850"/>
    </linearGradient>
  </defs>

  <rect width="1280" height="640" fill="url(#sky2)"/>

  <!-- moon halo behind raven -->
  <circle cx="280" cy="300" r="240" fill="url(#moon2)"/>

  <!-- starfield -->
  <g fill="#9badd0">
    <circle cx="80"   cy="80"  r="1.4" opacity="0.7"/>
    <circle cx="1180" cy="120" r="1.6" opacity="0.8"/>
    <circle cx="220"  cy="540" r="1.1" opacity="0.55"/>
    <circle cx="1100" cy="500" r="1.2" opacity="0.65"/>
    <circle cx="900"  cy="60"  r="0.9" opacity="0.5"/>
    <circle cx="60"   cy="380" r="1.0" opacity="0.55"/>
    <circle cx="600"  cy="40"  r="0.8" opacity="0.5"/>
    <circle cx="780"  cy="580" r="1.0" opacity="0.6"/>
    <circle cx="430"  cy="120" r="0.9" opacity="0.45"/>
    <circle cx="1240" cy="320" r="1.0" opacity="0.55"/>
  </g>

  <!-- perched raven on left, scaled up -->
  <g transform="translate(20, 60) scale(1.05)">
    <g fill="url(#raven2)" stroke="#000" stroke-width="0.6" stroke-linejoin="round">
      <path d="
        M 110 252
        C 118 232, 138 215, 168 213
        C 188 212, 205 220, 215 232
        L 244 224
        L 256 232
        L 232 248
        C 238 256, 242 266, 244 280
        C 245 296, 244 314, 246 332
        C 252 340, 262 348, 276 354
        L 396 384
        L 412 392
        L 408 400
        L 392 400
        L 280 376
        C 284 392, 280 408, 268 416
        C 268 432, 270 446, 272 456
        L 256 456
        L 252 432
        L 244 432
        L 240 456
        L 224 456
        L 222 426
        C 208 420, 196 408, 190 392
        C 184 372, 184 348, 188 320
        C 188 296, 180 274, 168 264
        C 152 260, 134 258, 120 258
        C 116 256, 112 254, 110 252
        Z
      "/>
      <path d="
        M 196 248
        C 220 246, 244 256, 256 280
        C 262 310, 262 348, 248 370
        C 232 374, 212 372, 200 360
        C 188 332, 188 294, 196 248
        Z
      " fill="#070710" opacity="0.55"/>
      <path d="M 210 270 C 232 280, 246 308, 244 340" fill="none" stroke="#000" stroke-width="0.8" opacity="0.4"/>
      <path d="M 204 296 C 226 308, 240 332, 240 358" fill="none" stroke="#000" stroke-width="0.8" opacity="0.35"/>
      <path d="M 200 322 C 220 332, 234 346, 236 364" fill="none" stroke="#000" stroke-width="0.8" opacity="0.3"/>
    </g>
    <circle cx="172" cy="226" r="9" fill="url(#eyeglow2)"/>
    <circle cx="172" cy="226" r="2.6" fill="#fff5d4"/>
    <line x1="180" y1="456" x2="320" y2="456" stroke="#2a324a" stroke-width="2" opacity="0.5" stroke-linecap="round"/>
  </g>

  <!-- title block -->
  <g transform="translate(580, 0)">
    <text x="0" y="280"
          font-family="Georgia, 'Times New Roman', serif"
          font-size="140"
          font-weight="700"
          letter-spacing="6"
          fill="url(#title)">MUNINN</text>

    <line x1="6" y1="318" x2="540" y2="318" stroke="#6b5530" stroke-width="1.2" opacity="0.7"/>

    <text x="8" y="370"
          font-family="Georgia, 'Times New Roman', serif"
          font-size="26"
          font-style="italic"
          fill="#c9bda0"
          letter-spacing="1.5">Odin's memory-raven for the WDGoWars sky.</text>

    <text x="8" y="430"
          font-family="'Courier New', monospace"
          font-size="20"
          fill="#7b8aa8"
          letter-spacing="1">ADS-B captures → WDGoWars, in one command.</text>
  </g>
</svg>
